<?xml version="1.0" encoding="UTF-8"?>
<svg width="32px" height="32px" fill="white" viewBox="0 0 32 32" version="1.1" xmlns="http://www.w3.org/2000/svg" xmlns:xlink="http://www.w3.org/1999/xlink">
    <title>00 ic/32 main/line/wind/direction 1</title>
    <g id="00-ic/32-main/line/wind/direction-1" stroke="none" stroke-width="1" >
        <path d="M16,5.66666667 C16.5128358,5.66666667 16.9355072,6.05270686 16.9932723,6.55004554 L17,6.66666667 L16.9996667,22.9186667 L20.6262266,19.2928932 C21.0167508,18.9023689 21.6499158,18.9023689 22.0404401,19.2928932 C22.4009241,19.6533772 22.4286536,20.2206082 22.1236287,20.6128994 L22.0404401,20.7071068 L16.7071068,26.0404401 C16.6800928,26.0674541 16.6515405,26.0929296 16.6215925,26.1167241 L16.7071068,26.0404401 C16.6646969,26.08285 16.6194255,26.1206543 16.571914,26.153853 C16.5571502,26.1640693 16.5419004,26.1741178 16.526367,26.1837526 C16.5125912,26.1924059 16.4982762,26.2007983 16.4838048,26.2088046 C16.4611555,26.221261 16.4380498,26.2329121 16.4144525,26.2436726 C16.4032897,26.2487784 16.392306,26.2535347 16.3812573,26.2580846 C16.3671004,26.2639383 16.3522625,26.2696607 16.3372588,26.2750347 L16.3141663,26.2829299 C16.2956783,26.2890303 16.2770476,26.294577 16.2583,26.2995699 C16.2412774,26.3042021 16.2235907,26.308414 16.2057289,26.3121493 L16.2055227,26.3121029 L16.1764315,26.3177355 C16.1634729,26.3200463 16.1504776,26.3221003 16.1374536,26.3238976 C16.1222988,26.3260543 16.1066018,26.3278443 16.0907989,26.3292666 C16.0712117,26.3309925 16.0521272,26.3321639 16.0330282,26.3327911 C16.0224019,26.3331485 16.0112225,26.3333333 16,26.3333333 L15.9669718,26.3327911 C15.9482947,26.3321778 15.9296315,26.3310439 15.9110058,26.3293897 L15.8833789,26.3266056 L15.8833789,26.3266056 L15.8612221,26.3237139 C15.8486414,26.3219608 15.8360878,26.3199679 15.8235685,26.3177355 L15.7924933,26.3117758 C15.7745482,26.3079889 15.7567805,26.3037207 15.7392043,26.2989855 C15.7221646,26.2943318 15.7044406,26.2890481 15.6868454,26.2832631 C15.6632224,26.2755227 15.640527,26.2670912 15.6182373,26.2578772 C15.6073836,26.2534069 15.5960932,26.2485111 15.5848779,26.2433972 C15.5634143,26.2335514 15.5426582,26.2231623 15.5223289,26.2120884 C15.5046395,26.2025589 15.486688,26.1920677 15.4690081,26.1809702 C15.4550453,26.1720945 15.4415518,26.1631527 15.4282929,26.1538977 C15.4144991,26.1443695 15.4006948,26.1341989 15.3871006,26.1236287 C15.3502553,26.0945291 15.320756,26.0683029 15.2928932,26.0404401 L9.95955989,20.7071068 C9.56903559,20.3165825 9.56903559,19.6834175 9.95955989,19.2928932 C10.3200438,18.9324093 10.8872749,18.9046797 11.2795661,19.2097046 L11.3737734,19.2928932 L14.9996667,22.9186667 L15,6.66666667 C15,6.11438192 15.4477153,5.66666667 16,5.66666667 Z" id="Combined-Shape" fill="#0E1B30"></path>
    </g>
</svg>